<?xml version="1.0" encoding="utf-8"?>
<!-- Generator: Adobe Illustrator 23.1.1, SVG Export Plug-In . SVG Version: 6.00 Build 0)  -->
<svg version="1.1" id="Calque_1" xmlns="http://www.w3.org/2000/svg" xmlns:xlink="http://www.w3.org/1999/xlink" x="0px" y="0px"
	 viewBox="0 0 612 550" style="enable-background:new 0 0 612 550;" xml:space="preserve">
<style type="text/css">
	.st0{opacity:0.25;fill-rule:evenodd;clip-rule:evenodd;fill:url(#SVGID_1_);}
	.st1{opacity:0.5;fill-rule:evenodd;clip-rule:evenodd;fill:url(#SVGID_2_);}
	.st2{opacity:0.25;fill-rule:evenodd;clip-rule:evenodd;fill:url(#SVGID_3_);}
	.st3{opacity:0.5;fill-rule:evenodd;clip-rule:evenodd;fill:#9871D0;}
	.st4{fill-rule:evenodd;clip-rule:evenodd;fill:#303A7D;}
	.st5{fill-rule:evenodd;clip-rule:evenodd;fill:#3E4992;}
	.st6{fill-rule:evenodd;clip-rule:evenodd;fill:url(#SVGID_4_);}
	.st7{opacity:0.2;fill-rule:evenodd;clip-rule:evenodd;fill:#FFFFFF;}
	.st8{fill-rule:evenodd;clip-rule:evenodd;fill:#FFFFFF;}
	.st9{opacity:0.25;fill-rule:evenodd;clip-rule:evenodd;fill:#02C9DE;}
	.st10{fill-rule:evenodd;clip-rule:evenodd;fill:url(#SVGID_5_);}
	.st11{fill-rule:evenodd;clip-rule:evenodd;fill:#1994F0;}
	.st12{fill-rule:evenodd;clip-rule:evenodd;fill:url(#SVGID_6_);}
	.st13{fill-rule:evenodd;clip-rule:evenodd;fill:#00EDFF;}
	.st14{fill-rule:evenodd;clip-rule:evenodd;fill:#0D7AE9;}
	.st15{fill-rule:evenodd;clip-rule:evenodd;fill:#494CEC;}
	.st16{fill-rule:evenodd;clip-rule:evenodd;fill:url(#SVGID_7_);}
	.st17{fill-rule:evenodd;clip-rule:evenodd;fill:#AAB4FF;}
	.st18{opacity:0.3;fill-rule:evenodd;clip-rule:evenodd;fill:#E23B93;}
	.st19{fill-rule:evenodd;clip-rule:evenodd;fill:url(#SVGID_8_);}
	.st20{fill-rule:evenodd;clip-rule:evenodd;fill:#9748E3;}
	.st21{fill-rule:evenodd;clip-rule:evenodd;fill:#DA7AE3;}
	.st22{opacity:0.5;fill-rule:evenodd;clip-rule:evenodd;fill:#9748E3;}
	.st23{fill-rule:evenodd;clip-rule:evenodd;fill:url(#SVGID_9_);}
	.st24{opacity:0.5;fill-rule:evenodd;clip-rule:evenodd;fill:url(#SVGID_10_);}
	.st25{fill-rule:evenodd;clip-rule:evenodd;fill:url(#SVGID_11_);}
	.st26{opacity:0.5;fill-rule:evenodd;clip-rule:evenodd;fill:#3856D8;}
	.st27{fill-rule:evenodd;clip-rule:evenodd;fill:#00FFFF;}
	.st28{fill-rule:evenodd;clip-rule:evenodd;fill:url(#SVGID_12_);}
	.st29{opacity:0.5;fill-rule:evenodd;clip-rule:evenodd;fill:#6D6AFD;}
	.st30{opacity:0.5;fill-rule:evenodd;clip-rule:evenodd;fill:#5194F9;}
	.st31{fill-rule:evenodd;clip-rule:evenodd;fill:#5194F9;}
	.st32{fill-rule:evenodd;clip-rule:evenodd;fill:#6D6AFD;}
	.st33{fill-rule:evenodd;clip-rule:evenodd;fill:url(#SVGID_13_);}
	.st34{fill-rule:evenodd;clip-rule:evenodd;fill:url(#SVGID_14_);}
	.st35{fill-rule:evenodd;clip-rule:evenodd;fill:url(#SVGID_15_);}
	.st36{fill-rule:evenodd;clip-rule:evenodd;fill:url(#SVGID_16_);}
	.st37{fill-rule:evenodd;clip-rule:evenodd;fill:#273087;}
	.st38{fill-rule:evenodd;clip-rule:evenodd;fill:url(#SVGID_17_);}
	.st39{fill-rule:evenodd;clip-rule:evenodd;fill:url(#SVGID_18_);}
	.st40{fill-rule:evenodd;clip-rule:evenodd;fill:url(#SVGID_19_);}
	.st41{fill-rule:evenodd;clip-rule:evenodd;fill:url(#SVGID_20_);}
	.st42{fill-rule:evenodd;clip-rule:evenodd;fill:url(#SVGID_21_);}
	.st43{fill-rule:evenodd;clip-rule:evenodd;fill:url(#SVGID_22_);}
	.st44{fill-rule:evenodd;clip-rule:evenodd;fill:#FFA698;}
	.st45{fill-rule:evenodd;clip-rule:evenodd;fill:url(#SVGID_23_);}
	.st46{opacity:0.35;fill-rule:evenodd;clip-rule:evenodd;fill:url(#SVGID_24_);}
	.st47{fill-rule:evenodd;clip-rule:evenodd;fill:url(#SVGID_25_);}
	.st48{opacity:0.35;fill-rule:evenodd;clip-rule:evenodd;fill:url(#SVGID_26_);}
	.st49{fill-rule:evenodd;clip-rule:evenodd;fill:#07BDE2;}
	.st50{fill-rule:evenodd;clip-rule:evenodd;fill:url(#SVGID_27_);}
	.st51{fill-rule:evenodd;clip-rule:evenodd;fill:url(#SVGID_28_);}
	.st52{fill-rule:evenodd;clip-rule:evenodd;fill:#FF8F7F;}
	.st53{fill-rule:evenodd;clip-rule:evenodd;fill:url(#SVGID_29_);}
	.st54{fill-rule:evenodd;clip-rule:evenodd;fill:url(#SVGID_30_);}
	.st55{fill-rule:evenodd;clip-rule:evenodd;fill:#E23B93;}
	.st56{fill-rule:evenodd;clip-rule:evenodd;fill:url(#SVGID_31_);}
	.st57{fill-rule:evenodd;clip-rule:evenodd;fill:#FDBEBE;}
	.st58{fill-rule:evenodd;clip-rule:evenodd;fill:#FA7BB4;}
	.st59{fill-rule:evenodd;clip-rule:evenodd;fill:#9157DD;}
	.st60{opacity:0.88;fill-rule:evenodd;clip-rule:evenodd;fill:#8241D8;}
	.st61{fill-rule:evenodd;clip-rule:evenodd;fill:url(#SVGID_32_);}
	.st62{opacity:0.88;fill-rule:evenodd;clip-rule:evenodd;fill:#FF89DB;}
</style>
<g>
	
		<linearGradient id="SVGID_1_" gradientUnits="userSpaceOnUse" x1="399.9118" y1="451.9764" x2="472.2247" y2="291.0014" gradientTransform="matrix(-1 3.779714e-03 3.224643e-03 0.8532 628.8926 59.2971)">
		<stop  offset="0" style="stop-color:#965CF2"/>
		<stop  offset="1" style="stop-color:#FF8ADC"/>
	</linearGradient>
	<path class="st0" d="M240.9,227.4c13.7-1.6,29.1-7.8,46.5-16.5l30.6-20.2l-68.4,225.2c-9.9,4.9-19.5,8.8-28.8,11.5
		c-31.7,10.3-79.7-10.9-165.3,102.6C-1,469.8-31.2,258.3,240.9,227.4z"/>
	<g>
		
			<linearGradient id="SVGID_2_" gradientUnits="userSpaceOnUse" x1="259.6731" y1="161.8409" x2="29.6533" y2="155.4154" gradientTransform="matrix(-1 3.779714e-03 3.224643e-03 0.8532 628.8926 59.2971)">
			<stop  offset="0" style="stop-color:#FA5DB1"/>
			<stop  offset="1" style="stop-color:#FEBFBF"/>
		</linearGradient>
		<path class="st1" d="M403.7,313.3c9,1.7-9.1,21.5,0.1,20.5c103.4-11,159.2-43.9,185.8-96c16.9-32.9,16.2-73.3-0.2-106.5
			c-18.4-37.5-56.4-66.4-106.1-72.5c75.8,22.1,117.9,88.2,92.6,159C550,290.7,464.4,306.3,403.7,313.3z"/>
		
			<linearGradient id="SVGID_3_" gradientUnits="userSpaceOnUse" x1="345.8414" y1="195.7504" x2="56.0785" y2="187.6293" gradientTransform="matrix(-1 3.779714e-03 3.224643e-03 0.8532 628.8926 59.2971)">
			<stop  offset="0" style="stop-color:#FA5DB1"/>
			<stop  offset="1" style="stop-color:#FEBFBF"/>
		</linearGradient>
		<path class="st2" d="M315.9,194.7c29.8,11.4,33.1,6,70.4-9c73.2-37.1,73.6-121.7-42.6-125.2c58.1-17.6,109.6-14.4,148.6,2.2
			c62.8,26.7,93.2,90.5,79.8,145.8c-7,28.8-29,55.3-61.5,73c-42.9,23.3-84.4,20.4-128.6,50.8l-57.6,69.5L315.9,194.7z"/>
	</g>
</g>
<g>
	<g>
		<g>
			<path class="st3" d="M483.2,455.8l-153.6-80.1c-5.7-2.4-14.1-4.6-19.7-1.5l-14.3,8c-2.9,1.6-12.3,6.9-6,10.1
				c18.6,9.2,137.6,72.7,156.5,82.1c3.6,1.8,8.8,2.4,14.3,2c5.5-0.4,11.1-1.8,15.5-4.2l5.7-3.2c4-2.3,6.3-4.8,6.5-7.1
				C488.4,459.4,486.7,457.2,483.2,455.8z"/>
			<g>
				<path class="st4" d="M479.2,446.6c0,6.8-2.7,11.6-6.9,13.9l-6.8,3.7c-23.2-9-14.6-116.4-16-146.9l7.1-160.1
					c-6-9.6-29-17.9-23.6-37.4l-68-29.1c-3-1.9-82.3-43.8-68.1-51.7c2.4-1.3,4.7-2.6,7.1-3.9c5.3-2.8,12-1.1,16.9,1.5l0,0l0,0
					l135.3,70.8c13.3,7,23.7,23.9,23.7,37.4L479.2,446.6z"/>
				<path class="st5" d="M289.9,53c0-6.7,2.6-11.4,6.7-13.8c4.3-2.4,10.4-2.2,17.1,1.4L449,111.5c13.1,6.9,23.7,23.7,23.6,37.4
					l-0.6,301.7c0,13.7-10.7,19.3-23.8,12.4L313,392.1c-13.1-6.9-23.7-23.7-23.7-37.4L289.9,53z"/>
				<linearGradient id="SVGID_4_" gradientUnits="userSpaceOnUse" x1="296.6598" y1="251.7706" x2="465.3592" y2="251.7706">
					<stop  offset="0" style="stop-color:#6D6AFE"/>
					<stop  offset="1" style="stop-color:#3FB0F7"/>
				</linearGradient>
				<path class="st6" d="M297.2,66c0-12.6,9.8-17.8,21.9-11.4l124.5,65.2c12,6.4,21.8,21.8,21.8,34.4l-0.5,283.3
					c0,12.6-9.9,17.8-21.9,11.4l-124.5-65.2c-12.1-6.4-21.8-21.8-21.8-34.4L297.2,66z"/>
			</g>
		</g>
		<g>
			<g>
				<path class="st7" d="M320.2,222.1c0-2.2,1.7-3.1,3.8-2c22,11.5,94.6,49.9,116.5,61.4c2.1,1.1,3.7,3.7,3.7,5.9l0.1,79.4
					c0,2.2-1.7,3-3.8,2c-22-11.5-94.6-49.9-116.5-61.4c-2.1-1.1-3.7-3.7-3.7-5.9L320.2,222.1z"/>
				<g>
					<g>
						<path class="st7" d="M323.9,225.7c0-0.6,0.4-0.8,1-0.5c5.8,3,11.5,6.1,17.3,9.2c0.5,0.3,1,1,1,1.6l0,20.9c0,0.6-0.4,0.8-1,0.5
							c-5.8-3-11.5-6.1-17.3-9.2c-0.5-0.3-1-1-1-1.6L323.9,225.7z"/>
						<path class="st7" d="M348.2,238.2c0-0.6,0.4-0.8,1-0.5c5.8,3,11.5,6.1,17.3,9.2c0.5,0.3,1,1,1,1.6l0,20.9c0,0.6-0.4,0.8-1,0.5
							c-5.8-3-11.5-6.1-17.3-9.2c-0.5-0.3-1-1-1-1.6L348.2,238.2z"/>
						<path class="st7" d="M372.4,251.1c0-0.6,0.4-0.8,1-0.5c5.8,3,11.5,6.1,17.3,9.2c0.5,0.3,1,1,1,1.6l0,20.9c0,0.6-0.4,0.8-1,0.5
							c-5.8-3-11.5-6.1-17.3-9.2c-0.5-0.3-1-1-1-1.6L372.4,251.1z"/>
						<path class="st7" d="M396.7,263.9c0-0.6,0.4-0.8,1-0.5c5.8,3,11.5,6.1,17.3,9.2c0.5,0.3,1,1,1,1.6l0,20.9c0,0.6-0.4,0.8-1,0.5
							c-5.8-3-11.5-6.1-17.3-9.2c-0.5-0.3-1-1-1-1.6L396.7,263.9z"/>
						<path class="st7" d="M421,276.3c0-0.6,0.4-0.8,1-0.5c5.8,3,11.5,6.1,17.3,9.2c0.5,0.3,1,1,1,1.6l0,20.9c0,0.6-0.4,0.8-1,0.5
							c-5.8-3-11.5-6.1-17.3-9.2c-0.5-0.3-1-1-1-1.6L421,276.3z"/>
					</g>
					<g>
						<path class="st7" d="M323.9,254c0-0.6,0.4-0.8,1-0.5c5.8,3,11.5,6.1,17.3,9.2c0.5,0.3,1,1,1,1.6l0,20.9c0,0.6-0.4,0.8-1,0.5
							c-5.8-3-11.5-6.1-17.3-9.2c-0.5-0.3-1-1-1-1.6L323.9,254z"/>
						<path class="st7" d="M348.2,266.5c0-0.6,0.4-0.8,1-0.5c5.8,3,11.5,6.1,17.3,9.2c0.5,0.3,1,1,1,1.6l0,20.9c0,0.6-0.4,0.8-1,0.5
							c-5.8-3-11.5-6.1-17.3-9.2c-0.5-0.3-1-1-1-1.6L348.2,266.5z"/>
						<path class="st7" d="M372.4,279.4c0-0.6,0.4-0.8,1-0.5c5.8,3,11.5,6.1,17.3,9.2c0.5,0.3,1,1,1,1.6l0,20.9c0,0.6-0.4,0.8-1,0.5
							c-5.8-3-11.5-6.1-17.3-9.2c-0.5-0.3-1-1-1-1.6L372.4,279.4z"/>
						<path class="st7" d="M396.7,292.1c0-0.6,0.4-0.8,1-0.5c5.8,3,11.5,6.1,17.3,9.2c0.5,0.3,1,1,1,1.6l0,20.9c0,0.6-0.4,0.8-1,0.5
							c-5.8-3-11.5-6.1-17.3-9.2c-0.5-0.3-1-1-1-1.6L396.7,292.1z"/>
						<path class="st7" d="M421,304.6c0-0.6,0.4-0.8,1-0.5c5.8,3,11.5,6.1,17.3,9.2c0.5,0.3,1,1,1,1.6l0,20.9c0,0.6-0.4,0.8-1,0.5
							c-5.8-3-11.5-6.1-17.3-9.2c-0.5-0.3-1-1-1-1.6L421,304.6z"/>
					</g>
					<g>
						<path class="st7" d="M323.9,282.3c0-0.6,0.4-0.8,1-0.5c5.8,3,11.5,6.1,17.3,9.2c0.5,0.3,1,1,1,1.6l0,20.9c0,0.6-0.4,0.8-1,0.5
							c-5.8-3-11.5-6.1-17.3-9.2c-0.5-0.3-1-1-1-1.6L323.9,282.3z"/>
						<path class="st7" d="M348.2,294.7c0-0.6,0.4-0.8,1-0.5c5.8,3,11.5,6.1,17.3,9.2c0.5,0.3,1,1,1,1.6l0,20.9c0,0.6-0.4,0.8-1,0.5
							c-5.8-3-11.5-6.1-17.3-9.2c-0.5-0.3-1-1-1-1.6L348.2,294.7z"/>
						<path class="st7" d="M372.4,307.7c0-0.6,0.4-0.8,1-0.5c5.8,3,11.5,6.1,17.3,9.2c0.5,0.3,1,1,1,1.6l0,20.9c0,0.6-0.4,0.8-1,0.5
							c-5.8-3-11.5-6.1-17.3-9.2c-0.5-0.3-1-1-1-1.6L372.4,307.7z"/>
						<path class="st7" d="M396.7,320.4c0-0.6,0.4-0.8,1-0.5c5.8,3,11.5,6.1,17.3,9.2c0.5,0.3,1,1,1,1.6l0,20.9c0,0.6-0.4,0.8-1,0.5
							c-5.8-3-11.5-6.1-17.3-9.2c-0.5-0.3-1-1-1-1.6L396.7,320.4z"/>
						<path class="st7" d="M421,332.9c0-0.6,0.4-0.8,1-0.5c5.8,3,11.5,6.1,17.3,9.2c0.5,0.3,1,1,1,1.6l0,20.9c0,0.6-0.4,0.8-1,0.5
							c-5.8-3-11.5-6.1-17.3-9.2c-0.5-0.3-1-1-1-1.6L421,332.9z"/>
					</g>
				</g>
			</g>
			<g>
				<path class="st8" d="M310.2,94.8c0-3,2.3-4.2,5.2-2.7c30.3,15.9,103.3,55.2,133.6,71c2.9,1.5,5.2,5.2,5.2,8.2l0.1,109.5
					c0,3-2.3,4.2-5.2,2.7c-30.3-15.9-103.3-55.2-133.6-71c-2.9-1.5-5.2-5.2-5.2-8.2L310.2,94.8z"/>
				<g>
					<path class="st9" d="M313.9,102.5c0-1.4,1.1-2,2.5-1.2l30.5,15.7c1.3,0.7,2.4,2.5,2.4,3.9l0,2.8c0,1.4-1.1,2-2.5,1.2
						l-30.5-15.7c-1.3-0.7-2.4-2.5-2.4-3.9L313.9,102.5z"/>
					<path class="st9" d="M313.9,114.8c0-1.2,1-1.7,2.2-1.1c17.3,8.9,45.6,23.5,62.9,32.4c1.2,0.6,2.1,2.2,2.1,3.4l0,2.5
						c0,1.2-1,1.7-2.2,1.1c-17.3-8.9-45.6-23.5-62.9-32.4c-1.2-0.6-2.1-2.2-2.1-3.4L313.9,114.8z"/>
				</g>
				<g>
					<path class="st9" d="M313.6,136.8c0-1.6,1.2-2.2,2.7-1.4c43.7,22.5,87.4,44.9,131.1,67.4c1.5,0.8,2.7,2.8,2.7,4.4l0,3.1
						c0,1.6-1.2,2.2-2.7,1.4c-43.7-22.5-87.4-44.9-131.1-67.4c-1.5-0.8-2.7-2.8-2.7-4.4L313.6,136.8z"/>
					<path class="st9" d="M313.6,153.4c0-1.6,1.2-2.2,2.7-1.4c43.7,22.5,87.4,44.9,131.1,67.4c1.5,0.8,2.7,2.8,2.7,4.4l0,3.1
						c0,1.6-1.2,2.2-2.7,1.4c-43.7-22.5-87.4-44.9-131.1-67.4c-1.5-0.8-2.7-2.8-2.7-4.4L313.6,153.4z"/>
					<path class="st9" d="M313.6,170c0-1.6,1.2-2.2,2.7-1.4c43.7,22.5,87.4,44.9,131.1,67.4c1.5,0.8,2.7,2.8,2.7,4.4l0,3.1
						c0,1.6-1.2,2.2-2.7,1.4c-43.7-22.5-87.4-44.9-131.1-67.4c-1.5-0.8-2.7-2.8-2.7-4.4L313.6,170z"/>
					<path class="st9" d="M313.6,186.6c0-1.6,1.2-2.2,2.7-1.4l47.7,25.1c1.5,0.8,2.7,2.8,2.7,4.4l0,3.1c0,1.6-1.2,2.2-2.7,1.4
						l-47.7-25.1c-1.5-0.8-2.7-2.8-2.7-4.4L313.6,186.6z"/>
				</g>
			</g>
		</g>
	</g>
</g>
<g>
</g>
<g>
	<g>
		<linearGradient id="SVGID_5_" gradientUnits="userSpaceOnUse" x1="163.3126" y1="420.7102" x2="159.6681" y2="428.1963">
			<stop  offset="0" style="stop-color:#3964AF"/>
			<stop  offset="1" style="stop-color:#00BCCE"/>
		</linearGradient>
		<path class="st10" d="M179.6,435.2c0.2-2.3-0.4-5.4-2.2-8.2c-2.9-4.3-7.8-7.7-12.5-9.8c-9.8-4.6-22.7-7.4-25.4,5.9
			c0.1-0.2,0.2-0.4,0.3-0.5c1.4-2.3,3.8-3.5,6.3-4.1c1.4-0.3,2.7-0.4,4.2-0.4c0.1,0,0.3,0,0.4,0c4.2,0.1,8.5,1.3,12.2,3
			c4.7,2.2,9.5,5.6,12.4,10c0.5,0.7,0.9,1.4,1.2,2.1c1,2,1.4,4,1.3,5.7v0l0,0L179.6,435.2z"/>
		<path class="st11" d="M146.6,440.8c-0.1-0.1-0.3-0.2-0.4-0.3c-0.6-0.4-1.3-0.9-1.9-1.4c-0.2-0.1-0.3-0.2-0.5-0.4
			c-0.7-0.6-1.4-1.2-2.1-1.8c-0.2-0.2-0.4-0.4-0.6-0.6c-0.2-0.2-0.5-0.4-0.7-0.7c-0.2-0.2-0.4-0.4-0.6-0.6c-0.2-0.2-0.4-0.5-0.7-0.7
			c-0.2-0.2-0.3-0.3-0.5-0.5c-0.4-0.4-0.7-0.8-1-1.2c-0.1-0.2-0.3-0.3-0.4-0.5c-0.4-0.6-0.9-1.1-1.3-1.7c-3.8-5.6-4.5-10.9-2.5-14.8
			l-1.7,3.6c-1.9,4-1.3,9.2,2.5,14.8c0.4,0.6,0.8,1.2,1.3,1.7c0.1,0.2,0.3,0.3,0.4,0.5c0.3,0.4,0.7,0.8,1,1.2
			c0.1,0.1,0.2,0.2,0.3,0.3c0.1,0.1,0.1,0.1,0.2,0.2c0.2,0.2,0.4,0.5,0.7,0.7c0.2,0.2,0.4,0.4,0.6,0.7c0.2,0.2,0.5,0.4,0.7,0.7
			c0.2,0.1,0.3,0.3,0.5,0.4c0.1,0,0.1,0.1,0.2,0.1c0.7,0.6,1.4,1.2,2.1,1.8c0.1,0,0.1,0.1,0.2,0.1c0.1,0.1,0.2,0.1,0.3,0.2
			c0.6,0.5,1.2,0.9,1.9,1.4c0.1,0.1,0.1,0.1,0.2,0.2c0.1,0,0.1,0.1,0.2,0.1h0L146.6,440.8z"/>
		<linearGradient id="SVGID_6_" gradientUnits="userSpaceOnUse" x1="163.2503" y1="420.3538" x2="155.9109" y2="437.5635">
			<stop  offset="0" style="stop-color:#1C8EF4"/>
			<stop  offset="1" style="stop-color:#00CFDD"/>
		</linearGradient>
		<path class="st12" d="M184.2,426.9c-7.5-11.1-24.4-19.3-37.7-18.4c-13.3,1-18,10.8-10.5,21.9c2.6,3.9,6.4,7.4,10.7,10.3l4.1-3.4
			c-3.2-2.1-5.9-4.6-7.8-7.4c-5.3-7.9-2-14.8,7.4-15.5c9.4-0.7,21.4,5.1,26.7,13c1.9,2.8,2.7,5.4,2.5,7.7l8.1,2.5
			C187.9,434.5,186.8,430.8,184.2,426.9z"/>
		<g>
			<path class="st13" d="M183.8,426.9c2.4,3.5,3,6.7,3,9.7c-1-0.2-4.3-0.9-7.1-1.4l8.1,2.5c0.2-3.2-1-6.9-3.6-10.8
				c-6.6-9.8-20.6-17.4-32.9-18.3C163.5,409.7,177.2,417.2,183.8,426.9z"/>
			<path class="st14" d="M150.4,414.5c1.1-0.1,2.2-0.1,3.3,0c-1.3-0.1-2.5,0-3.7,0c-9.9,0-16.7,11.7-0.8,23.1c0,0-2.7,3.2-2.6,3.2
				l4.1-3.4c-3.2-2.1-5.9-4.6-7.8-7.4C137.7,422.1,141,415.2,150.4,414.5z"/>
		</g>
		<path class="st15" d="M179.6,435.2l-1.7,3.6c-0.1,1-0.3,1.9-0.7,2.7l1.7-3.6C179.3,437.1,179.5,436.2,179.6,435.2z"/>
		<path class="st15" d="M185.2,444c-2.4,2.7-6,4.1-9.5,4.6c-0.2,0-0.4,0.1-0.6,0.1c-6,0.8-12.5-0.5-18.1-2.6
			c-3.6-1.4-7.2-3.2-10.4-5.3l-1.7,3.6c3.2,2.2,6.7,4,10.4,5.3c0.1,0,0.2,0.1,0.2,0.1c5.5,2,11.9,3.3,17.9,2.5
			c3.7-0.5,7.6-1.8,10.1-4.7c0.5-0.6,1-1.3,1.4-2c0-0.1,0.1-0.2,0.1-0.2l1.7-3.6C186.3,442.6,185.8,443.3,185.2,444z"/>
		<linearGradient id="SVGID_7_" gradientUnits="userSpaceOnUse" x1="171.8802" y1="446.3264" x2="161.1419" y2="430.1937">
			<stop  offset="0" style="stop-color:#6D6AFE"/>
			<stop  offset="1" style="stop-color:#3FB0F7"/>
		</linearGradient>
		<path class="st16" d="M187.7,437.7l-8.1-2.5c-0.3,4.2-3.8,7.3-9.9,7.7c-6.1,0.4-13.2-1.8-18.9-5.6l-4.1,3.4
			c8.1,5.4,18.3,8.7,27,8.1C182.4,448.2,187.4,443.8,187.7,437.7z"/>
		<path class="st17" d="M187.7,437.7c0,0-0.4,9.6-14.4,10.7c-12.9,1-26.7-7.7-26.7-7.7c8.1,5.4,18.3,8.7,27,8.1
			C182.4,448.2,187.4,443.8,187.7,437.7z"/>
	</g>
	<g>
		<path class="st18" d="M362.3,464.8L139,336.6c-1.8-0.8-4.3-1.5-6.1-0.6c-1.6,0.8-4.3,2.5-5.5,3.1c-0.9,0.5-4,2.3-2.1,3.4
			c5.7,3.2,218.7,125.5,224.5,128.8c1.1,0.6,2.7,0.9,4.4,0.8c1.7-0.1,3.4-0.6,4.8-1.3c1-0.5,1.9-1.1,2.9-1.6c1.3-0.7,1.9-1.6,2-2.4
			C363.9,466,363.4,465.3,362.3,464.8z"/>
		<g>
			<g>
				<path class="st4" d="M351.2,218.1c9.1,5.3,16.3,18,16.3,28.2l-8.4,10.7l-7.5-1.5c-4.1-7.2-20-13.5-16.3-28.2L182,143.6
					l-46.3-31.5h0h0c0.2-1.2-1.2-7,0-7.8c1.4-0.9,2.9-1.7,4.3-2.6c3.6-2.1,8.2-0.8,11.6,1.1l0,0l0,0L351.2,218.1z"/>
				<path class="st4" d="M367.1,451.9c0,5.1-1.8,8.8-4.8,10.5l-4.2,2.5c-17.3-8.1-10.4-117.1-11.5-142.6l4.9-66.7l15.9-9.3
					L367.1,451.9z"/>
			</g>
			<linearGradient id="SVGID_8_" gradientUnits="userSpaceOnUse" x1="280.236" y1="384.7361" x2="181.3172" y2="87.571">
				<stop  offset="0" style="stop-color:#965CF2"/>
				<stop  offset="1" style="stop-color:#FF8ADC"/>
			</linearGradient>
			<path class="st19" d="M131,114.7c0-10.4,7.4-14.5,16.4-9.3l199.6,115.2c9,5.2,16.3,17.8,16.3,28.2l-0.4,205.6
				c0,10.3-7.4,14.5-16.4,9.3L146.9,348.5c-9-5.2-16.3-17.8-16.3-28.2L131,114.7z"/>
			<path class="st20" d="M131,114.7c0-10.4,7.4-14.5,16.4-9.3l16.7,9.6l-0.5,243.1l-16.7-9.7c-9-5.2-16.3-17.8-16.3-28.2L131,114.7z
				"/>
			<path class="st5" d="M131.3,111.1c1.5-7.7,8.1-10.3,16-5.7l199.6,115.2c7.9,4.6,14.4,14.8,15.9,24.2L131.3,111.1z"/>
			<g>
				<path class="st4" d="M157.1,117.7c-1.3-0.8-2.4-0.2-2.4,1.4c0,1.5,1.1,3.4,2.4,4.2c1.3,0.8,2.4,0.2,2.4-1.4
					C159.5,120.3,158.4,118.5,157.1,117.7z"/>
				<path class="st4" d="M149,112.4c-1.3-0.8-2.4-0.2-2.4,1.4c0,1.5,1.1,3.4,2.4,4.2c1.3,0.8,2.4,0.2,2.4-1.4
					C151.4,115.1,150.4,113.2,149,112.4z"/>
				<path class="st4" d="M141.6,108c-1.3-0.8-2.4-0.2-2.4,1.4c0,1.5,1.1,3.4,2.4,4.2c1.3,0.8,2.4,0.2,2.4-1.4
					C144.1,110.7,143,108.8,141.6,108z"/>
			</g>
			<path class="st21" d="M148.1,159c-7.1-4.1-13.3-13.8-13.9-21.7c-0.5-7.9,4.8-10.9,11.9-6.8c7.1,4.1,13.3,13.8,13.9,21.7
				C160.6,160.1,155.2,163.1,148.1,159L148.1,159z M148,156.7c6,3.5,10.5,0.9,10-5.7c-0.5-6.6-5.7-14.8-11.7-18.3
				c-6-3.5-10.5-0.9-10,5.7C136.7,145.1,142,153.3,148,156.7z"/>
		</g>
	</g>
	<path class="st22" d="M132.1,262.8c0-5.1,1.8-8.7,4.6-10.5c3-1.9,7.2-1.7,11.9,1l196.1,111.4c9.1,5.3,16.5,18,16.4,28.4l-0.4,59.1
		c0,10.4-7.4,14.7-16.5,9.4L148.1,350.3c-9.1-5.3-16.5-18-16.4-28.4L132.1,262.8z"/>
	<g>
		<path class="st4" d="M137.3,259c0-5-1.6-4.9,0.5-7.4c0.5-0.6,5.2-3.4,5.8-3.6c2.7-0.9,6.2-0.3,9.9,1.8l189.2,108.5
			c8.9,5.1,16.1,17.6,16,27.8l-0.4,57.7c0,4-1.1,7-3,9c-2.9,3.1-8.1,6.6-13.6,3.4L152.9,344.4c-8.9-5.1-16.1-17.6-16-27.8L137.3,259
			z"/>
		<linearGradient id="SVGID_9_" gradientUnits="userSpaceOnUse" x1="250.6163" y1="330.7247" x2="239.0851" y2="378.2328">
			<stop  offset="0" style="stop-color:#6D6AFE"/>
			<stop  offset="1" style="stop-color:#3FB0F7"/>
		</linearGradient>
		<path class="st23" d="M134.7,260.6c0-5,1.7-8.5,4.5-10.2c2.9-1.8,7.1-1.6,11.6,1L340,359.9c8.9,5.1,16.1,17.6,16,27.8l-0.4,57.7
			c0,10.2-7.3,14.3-16.1,9.2L150.4,346.1c-8.9-5.1-16.1-17.6-16-27.8L134.7,260.6z"/>
		<g>
			<linearGradient id="SVGID_10_" gradientUnits="userSpaceOnUse" x1="242.9443" y1="376.5078" x2="252.3854" y2="349.6393">
				<stop  offset="0" style="stop-color:#6D6AFE"/>
				<stop  offset="1" style="stop-color:#3FB0F7"/>
			</linearGradient>
			<path class="st24" d="M355.8,383.8l0.1,41.9l-0.1,19.7c0,3.9-1.1,6.9-2.8,8.8l-216-124.4c-1.6-3.8-2.6-7.8-2.5-11.5l0.2-26
				c5.3,6.4,10.5,12.2,16.7,15.8c2.1,1.2,4.3,2.2,6.7,2.8c10.2,2.6,23.2-13.4,38.5-7c0.8,0.3,1.6,0.7,2.4,1.2
				c6.7,3.9,12,11.3,17.5,18.9c5.5,7.6,11.4,15.3,19.1,19.8c0.6,0.3,1.2,0.6,1.8,0.9c17.7,8.7,22.5-9.4,35.6-2.3
				c0.3,0.1,0.5,0.3,0.8,0.4c5.9,3.4,9.1,7.7,12.6,12.3c3.5,4.5,7.3,9.2,14.6,13.5c0.6,0.3,1.1,0.6,1.7,1
				c13.2,6.9,20.6-11.1,38.3-9.1C348.3,365.1,354.4,374.9,355.8,383.8z"/>
			<linearGradient id="SVGID_11_" gradientUnits="userSpaceOnUse" x1="239.6408" y1="388.9864" x2="249.9502" y2="366.3889">
				<stop  offset="0" style="stop-color:#6D6AFE"/>
				<stop  offset="1" style="stop-color:#3FB0F7"/>
			</linearGradient>
			<path class="st25" d="M355,383.1l0.7,0.4l0.1,0.3l0.1,41.8l-0.1,19.7c0,10.2-7.3,14.3-16.1,9.2L150.4,346.1
				c-8.9-5.1-16.1-17.6-16-27.8l0.1-13.1c6.2,6.7,12.5,13.1,19.9,17.4c1.3,0.7,2.5,1.4,3.9,2c15.2,6.7,22.9-11.9,38.2-5
				c0.7,0.3,1.4,0.7,2,1c6.9,4,12.5,11.7,18.4,19.6c5.9,7.9,12.1,15.9,20,20.5c0.5,0.3,1,0.6,1.5,0.8c17.7,9,22.2-10.2,34.5-5.1
				c0.6,0.3,1.2,0.6,1.8,0.9c5.1,2.9,7.9,8.2,11.4,13.8c3.4,5.6,7.4,11.6,14.9,15.9c0.3,0.2,0.6,0.3,0.9,0.5
				C318.1,396.2,326.3,366.6,355,383.1z"/>
			<g>
				<path class="st26" d="M134.4,315.6c3.1,3.6,6.3,7.1,9.5,10.2c3.3,3.2,6.7,6,10.5,8.3c0.6,0.4,1.3,0.8,1.9,1.1
					c0.7,0.4,1.3,0.7,2,1c7.6,3.5,13.3,0.4,19-2.7c5.8-3.2,11.5-6.3,19.3-2.7c0.3,0.2,0.7,0.3,1,0.5c0.4,0.2,0.7,0.4,1,0.6
					c6.7,4.1,12.1,11.8,17.8,19.9l0.6,0.8c2.9,4.2,6,8.4,9.2,12.2c3.3,3.8,6.8,7.1,10.8,9.5l0.8,0.4l0.8,0.4
					c9.8,5.3,15.6,1.3,20.9-2.3c4.2-2.9,8.1-5.6,13.6-3.2c0.3,0.1,0.6,0.3,0.9,0.4c0.3,0.2,0.6,0.3,0.9,0.5
					c4.6,2.8,7.4,7.6,10.4,12.9l1,1.8c1.7,3,3.6,6,5.9,8.9c2.4,2.9,5.2,5.6,9,7.9l0.9,0.5c6.8,3.8,12.2,0.4,18.3-3.5
					c8.4-5.3,18.1-11.5,34.7-1.4l0.7,0.5l0,3.4l-0.8-0.5c-16.5-10.1-26.3-3.9-34.6,1.4c-6.2,3.9-11.6,7.3-18.4,3.5l-0.9-0.5
					c-3.8-2.3-6.6-5-9-7.9c-2.4-2.9-4.2-6-6-9l-1-1.8c-3-5.3-5.7-10.1-10.3-12.9c-0.3-0.2-0.6-0.3-0.9-0.5c-0.3-0.2-0.6-0.3-0.9-0.4
					c-5.4-2.4-9.3,0.3-13.5,3.2c-5.3,3.6-11.1,7.6-20.9,2.3l-0.8-0.4l-0.8-0.4c-4-2.4-7.5-5.8-10.8-9.6c-3.3-3.8-6.3-8-9.2-12.2
					l-0.6-0.8c-5.7-8.1-11.1-15.8-17.8-19.9c-0.3-0.2-0.7-0.4-1-0.6c-0.3-0.2-0.7-0.4-1-0.5c-7.7-3.6-13.5-0.5-19.2,2.7
					c-5.7,3.1-11.4,6.3-19,2.7c-0.7-0.3-1.3-0.6-2-1c-0.7-0.4-1.3-0.7-1.9-1.1c-3.7-2.3-7.2-5.1-10.5-8.3c-3.3-3.2-6.4-6.7-9.6-10.2
					l0-0.2L134.4,315.6z"/>
				<path class="st27" d="M134.4,314.4c3.1,3.4,6.3,6.7,9.5,9.7c3.3,3,6.7,5.7,10.5,7.8c0.6,0.4,1.3,0.7,1.9,1
					c0.7,0.3,1.3,0.6,2,0.9c7.6,3.3,13.3,0.4,19-2.5c5.8-3,11.5-5.9,19.3-2.5c0.3,0.2,0.7,0.3,1,0.5c0.4,0.2,0.7,0.4,1,0.6
					c6.7,3.8,12.1,11.2,17.8,18.8l0.6,0.8c2.9,3.9,6,7.9,9.2,11.5c3.3,3.6,6.8,6.7,10.8,9l0.8,0.4l0.8,0.4c9.8,5,15.6,1.3,20.9-2.1
					c4.2-2.7,8.1-5.3,13.6-3c0.3,0.1,0.6,0.3,0.9,0.4c0.3,0.2,0.6,0.3,0.9,0.5c4.6,2.7,7.4,7.2,10.4,12.2l1,1.7
					c1.7,2.8,3.6,5.7,5.9,8.4c2.4,2.7,5.2,5.3,9,7.5l0.9,0.5c6.8,3.6,12.2,0.4,18.3-3.2c8.4-5,18.1-10.8,34.7-1.3l0.7,0.4l0,3.2
					l-0.8-0.4c-16.5-9.5-26.3-3.7-34.6,1.3c-6.2,3.7-11.6,6.9-18.4,3.2l-0.9-0.5c-3.8-2.2-6.6-4.7-9-7.5c-2.4-2.7-4.2-5.6-6-8.5
					l-1-1.7c-3-5-5.7-9.5-10.3-12.1c-0.3-0.2-0.6-0.3-0.9-0.5c-0.3-0.2-0.6-0.3-0.9-0.4c-5.4-2.3-9.3,0.3-13.5,3
					c-5.3,3.4-11.1,7.2-20.9,2.1l-0.8-0.4l-0.8-0.4c-4-2.3-7.5-5.5-10.8-9c-3.3-3.6-6.3-7.6-9.2-11.5l-0.6-0.8
					c-5.7-7.6-11.1-15-17.8-18.8c-0.3-0.2-0.7-0.4-1-0.6c-0.3-0.2-0.7-0.3-1-0.5c-7.7-3.4-13.5-0.5-19.2,2.5
					c-5.7,2.9-11.4,5.9-19,2.5c-0.7-0.3-1.3-0.6-2-0.9c-0.7-0.3-1.3-0.7-1.9-1c-3.7-2.1-7.2-4.8-10.5-7.8c-3.3-3-6.4-6.3-9.6-9.7
					l0-0.5L134.4,314.4z"/>
			</g>
		</g>
		<g>
			<path class="st8" d="M197.5,331.4c0.7-0.4,1.1-1.2,1.1-2.5c0-1.2-0.4-2.6-1.1-3.8c-0.7-1.2-1.7-2.3-2.7-2.9
				c-1.1-0.6-2-0.6-2.8-0.3c-0.7,0.4-1.1,1.3-1.1,2.5c0,1.2,0.4,2.5,1.1,3.8c0.7,1.2,1.7,2.2,2.7,2.9
				C195.8,331.7,196.8,331.8,197.5,331.4L197.5,331.4z M194.8,323.9c1.4,0.8,2.4,2.7,2.4,4.3c0,1.6-1.1,2.2-2.4,1.5
				c-1.4-0.8-2.5-2.7-2.5-4.3C192.3,323.7,193.4,323,194.8,323.9L194.8,323.9z M198.4,324.7c0.9,1.6,1.5,3.4,1.5,5
				c0,1.6-0.6,2.8-1.5,3.3c-1,0.5-2.2,0.4-3.6-0.4c-1.4-0.8-2.7-2.2-3.7-3.8c-0.9-1.6-1.5-3.4-1.5-5c0-1.7,0.6-2.8,1.5-3.3
				c1-0.6,2.3-0.4,3.7,0.4C196.2,321.6,197.5,323,198.4,324.7z"/>
			<path class="st8" d="M270.7,361.6c1.4,0.8,2.5,2.7,2.5,4.3c0,1.6-1.1,2.2-2.5,1.4c-1.4-0.8-2.5-2.7-2.5-4.3
				C268.2,361.4,269.3,360.8,270.7,361.6L270.7,361.6z M273.4,369.1c0.7-0.4,1.1-1.3,1.1-2.5c0-1.2-0.4-2.6-1.1-3.8
				c-0.7-1.1-1.6-2.2-2.7-2.9c-1.1-0.6-2-0.6-2.7-0.3c-0.7,0.4-1.1,1.3-1.1,2.5c0,1.2,0.4,2.5,1.1,3.7c0.7,1.2,1.6,2.2,2.7,2.8
				C271.7,369.5,272.7,369.6,273.4,369.1L273.4,369.1z M274.3,362.4c-0.9-1.6-2.2-3-3.6-3.8c-1.4-0.8-2.7-0.9-3.6-0.3
				c-0.9,0.5-1.5,1.7-1.5,3.3c0,1.6,0.6,3.4,1.5,5c0.9,1.6,2.2,3,3.6,3.8c1.4,0.8,2.7,0.9,3.6,0.4c0.9-0.6,1.5-1.7,1.5-3.3
				C275.8,365.8,275.2,364,274.3,362.4z"/>
			<path class="st8" d="M279.4,353.4c0.7,1.2,1,2.4,1,3.7c0,1.2-0.4,2.1-1.2,2.6c-0.7,0.4-1.6,0.3-2.7-0.3c-1-0.6-1.8-1.3-2.5-2.4
				c-0.7-1-1.2-2.2-1.4-3.4l2.3,1.3c0.1,0.5,0.4,0.9,0.7,1.3c0.3,0.3,0.6,0.6,0.9,0.8c0.5,0.3,0.9,0.3,1.2,0.1
				c0.4-0.2,0.5-0.6,0.5-1.2c0-0.6-0.2-1.2-0.5-1.7c-0.3-0.6-0.7-1-1.1-1.2c-0.3-0.2-0.5-0.2-0.7-0.2c-0.3,0-0.5,0.1-0.7,0.2
				l-1.8-1.5l1.4-6.5l5.3,3.1l0,2.3l-3.7-2.1l-0.5,2.1l0.4,0.1l0.4,0.1C277.9,351.2,278.7,352.1,279.4,353.4L279.4,353.4z
				 M269,346.6c0.3-0.2,0.4-0.5,0.4-1c0-0.5-0.2-1-0.4-1.5c-0.3-0.5-0.7-0.9-1-1.1c-0.4-0.2-0.8-0.3-1-0.1c-0.3,0.2-0.5,0.5-0.5,1
				c0,0.5,0.2,1,0.4,1.5c0.3,0.5,0.7,0.9,1.1,1.2C268.4,346.8,268.8,346.8,269,346.6L269,346.6z M268,340.6c1,0.6,1.9,1.5,2.6,2.7
				c0.7,1.2,1,2.3,1,3.4c0,0.4,0,0.7-0.2,1.1c-0.1,0.4-0.4,0.9-0.8,1.5l-2.9,4.9l-1.8-2.1l2-3.3c-1-0.6-1.8-1.4-2.5-2.6
				c-0.7-1.2-1-2.4-1-3.6c0-1.1,0.4-1.9,1.1-2.2C266.2,340,267,340,268,340.6z"/>
			<path class="st8" d="M342.1,384.9c1.4,0.8,2.5,2.7,2.5,4.3c0,1.6-1.1,2.2-2.5,1.4c-1.4-0.8-2.5-2.7-2.5-4.3
				C339.6,384.8,340.7,384.1,342.1,384.9L342.1,384.9z M344.8,392.5c0.7-0.4,1.1-1.2,1.1-2.5c0-1.2-0.4-2.6-1.1-3.8
				c-0.7-1.1-1.6-2.2-2.7-2.9c-1.1-0.6-2-0.6-2.7-0.3c-0.7,0.4-1.2,1.2-1.2,2.5c0,1.2,0.5,2.5,1.2,3.8c0.7,1.2,1.6,2.2,2.7,2.8
				C343.1,392.8,344.1,392.9,344.8,392.5L344.8,392.5z M345.7,385.7c-0.9-1.6-2.2-3-3.6-3.8c-1.4-0.8-2.7-0.9-3.6-0.3
				c-0.9,0.5-1.5,1.6-1.5,3.3c0,1.6,0.6,3.5,1.5,5c0.9,1.6,2.2,3,3.6,3.8c1.4,0.8,2.7,0.9,3.6,0.4c0.9-0.5,1.5-1.7,1.5-3.3
				C347.2,389.1,346.6,387.3,345.7,385.7z"/>
		</g>
	</g>
	<path class="st22" d="M262,230.4c0-5.1,1.8-8.6,4.6-10.4c3-1.8,7.2-1.6,11.8,1l87.5,50.2l1.3,68.4l0,8.3l-4.2,3.7l-85.1-48.8
		c-9-5.2-16.3-17.9-16.3-28.3L262,230.4z"/>
	<path class="st22" d="M134.1,151c0-5.1,1.8-8.7,4.6-10.4c3-1.8,7.2-1.6,11.9,1l93.7,53.7c9.1,5.2,16.4,17.9,16.4,28.4l-0.4,44.3
		c0,10.4-7.4,14.6-16.5,9.4l-93.7-53.7c-9.1-5.2-16.4-17.9-16.4-28.4L134.1,151z"/>
	<g>
		<path class="st4" d="M264,221.7c0-5-1.6-4.9,0.5-7.4c0.5-0.6,5.2-3.4,5.8-3.6c2.7-0.9,6.2-0.3,9.9,1.8l91.7,52.6
			c8.9,5.1,16.1,17.6,16,27.8l-0.4,43.4c0,4-1.1,7-3,9c-2.9,3.1-8.1,6.6-13.6,3.4l-91.3-55.8c-8.9-5.1-16.1-17.6-16-27.8L264,221.7z
			"/>
		<g>
			<linearGradient id="SVGID_12_" gradientUnits="userSpaceOnUse" x1="325.4995" y1="251.9536" x2="319.8589" y2="321.0135">
				<stop  offset="0" style="stop-color:#1C8EF4"/>
				<stop  offset="1" style="stop-color:#00CFDD"/>
			</linearGradient>
			<path class="st28" d="M261.4,223.3c0-5,1.7-8.5,4.5-10.2c2.9-1.8,7.1-1.6,11.6,1l91.7,52.6c8.9,5.1,16.1,17.6,16,27.8l-0.4,43.4
				c0,10.2-7.3,14.3-16.1,9.2l-91.7-52.6c-8.9-5.1-16.1-17.6-16-27.8L261.4,223.3z"/>
			<path class="st26" d="M270.8,289.4l0.1-39.7l-1.1-0.8l-0.1,39.3C270.1,288.6,270.5,289,270.8,289.4L270.8,289.4z M270.4,245.7
				c-0.6-0.5-1.1-0.3-1.1,0.4c0,0.7,0.5,1.6,1.1,2.1c0.6,0.5,1.1,0.3,1.1-0.4C271.5,247.2,271,246.2,270.4,245.7L270.4,245.7z
				 M288.4,301l0.2-55.1l-1.1-0.8l-0.2,55.3L288.4,301L288.4,301z M288.1,241.9c-0.6-0.5-1.1-0.3-1.1,0.4c0,0.7,0.5,1.7,1.1,2.1
				c0.6,0.5,1.1,0.3,1.1-0.4C289.2,243.3,288.7,242.3,288.1,241.9L288.1,241.9z M306,311.1l0.2-69.1l-1.1-0.8l-0.2,69.3L306,311.1
				L306,311.1z M305.7,238c-0.6-0.5-1.1-0.3-1.1,0.4c0,0.7,0.5,1.6,1.1,2.1c0.6,0.5,1.1,0.3,1.1-0.4
				C306.8,239.4,306.3,238.5,305.7,238L305.7,238z M323.6,321.2l0.2-69.3l-1.1-0.8l-0.2,69.5L323.6,321.2L323.6,321.2z M323.3,247.8
				c-0.6-0.5-1.1-0.3-1.1,0.4c0,0.7,0.5,1.6,1.1,2.1c0.6,0.5,1.1,0.3,1.1-0.4C324.4,249.3,323.9,248.3,323.3,247.8L323.3,247.8z
				 M341.2,331.2l0.2-59.3l-1.1-0.8l-0.2,59.5L341.2,331.2L341.2,331.2z M340.8,267.9c-0.6-0.5-1.1-0.3-1.1,0.4
				c0,0.7,0.5,1.6,1.1,2.1c0.6,0.5,1.1,0.3,1.1-0.4C342,269.4,341.5,268.4,340.8,267.9L340.8,267.9z M358.8,341.3l0.1-45.9l-1.1-0.8
				l-0.1,46.1L358.8,341.3L358.8,341.3z M358.4,291.5c-0.6-0.5-1.1-0.3-1.1,0.4c0,0.7,0.5,1.6,1.1,2.1c0.6,0.5,1.1,0.3,1.1-0.4
				C359.5,292.9,359,291.9,358.4,291.5L358.4,291.5z M376.3,349.3l0.1-37.3l-1.1-0.8l-0.1,38.1C375.6,349.3,376,349.3,376.3,349.3
				L376.3,349.3z M375.9,308c-0.6-0.5-1.1-0.3-1.1,0.4c0,0.7,0.5,1.7,1.1,2.1c0.6,0.5,1.1,0.3,1.1-0.4
				C377.1,309.5,376.5,308.5,375.9,308z"/>
			<g>
				<path class="st26" d="M381.2,295.1c-0.2-0.3-0.4-0.5-0.6-0.7c-0.3-0.2-0.5-0.3-0.7-0.2c-1.6,1-3.1,1.9-4.5,2.6
					c-1.4,0.7-2.7,1.3-3.9,1.7c-5.7,2-10.2,1.2-15-2.4c-4.7-3.6-9.6-10.1-16.2-19.1c-7.3-10.1-13.5-17.2-19.4-21.6
					c-0.9-0.7-1.7-1.2-2.6-1.8c-6.6-4.2-12.9-4.8-19.9-2.2c-0.7,0.2-1.4,0.5-2.1,0.8c-5.4,2.1-10.4,4.1-16.8-0.8
					c-3.3-2.5-7-6.9-11.3-14c-0.2-0.3-0.4-0.5-0.6-0.6c-0.3-0.2-0.5-0.3-0.7-0.2c-0.3,0.2-0.2,0.9,0.1,1.5c4.8,8,8.9,12.8,12.6,15.6
					c6.9,5.2,12.3,3.1,18,0.8c0.7-0.3,1.4-0.5,2.1-0.8c6.7-2.5,12.6-2,18.8,2c0.8,0.5,1.5,1,2.3,1.6c5.5,4.2,11.5,11,18.5,20.7
					c6.8,9.3,11.9,16,17,20c0.1,0.1,0.2,0.2,0.3,0.2c5,3.8,9.9,4.8,16,2.6c1.3-0.4,2.6-1,4-1.8c1.4-0.7,2.9-1.6,4.6-2.6
					C381.6,296.4,381.6,295.7,381.2,295.1z"/>
				<path class="st27" d="M379.6,290.8c-0.2-0.3-0.4-0.5-0.6-0.6c-0.3-0.2-0.5-0.3-0.7-0.2c-1.6,1-3.1,1.9-4.5,2.6
					c-1.4,0.7-2.7,1.3-3.9,1.8c-5.7,2.1-10.2,1.3-15-2.2c-4.7-3.6-9.6-10-16.2-18.9c-7.3-10-13.5-17-19.3-21.4
					c-0.9-0.6-1.7-1.2-2.6-1.8c-6.6-4.1-12.9-4.6-19.9-1.9c-0.7,0.3-1.4,0.6-2.1,0.8c-5.4,2.2-10.4,4.2-16.8-0.5
					c-3.3-2.5-7-6.8-11.3-13.9c-0.2-0.3-0.4-0.5-0.6-0.6c-0.3-0.2-0.5-0.3-0.7-0.1c-0.3,0.2-0.2,0.9,0.1,1.5
					c4.8,7.9,8.9,12.7,12.6,15.4c6.9,5.1,12.3,2.9,18,0.6c0.7-0.3,1.4-0.6,2.1-0.8c6.7-2.6,12.6-2.1,18.8,1.7c0.8,0.5,1.5,1,2.3,1.6
					c5.5,4.1,11.5,10.9,18.5,20.5c6.8,9.2,11.9,15.9,17,19.8c0.1,0.1,0.2,0.1,0.3,0.2c5,3.7,9.9,4.6,16,2.4c1.3-0.5,2.6-1.1,4-1.8
					c1.4-0.8,2.9-1.6,4.5-2.7C380.1,292.1,380,291.4,379.6,290.8z"/>
			</g>
		</g>
	</g>
	<g>
		<path class="st4" d="M135.6,144.8c0-4.9-1.1-6,1.2-8.4c0.9-0.9,4.9-2.6,5.9-2.7c2.6-0.5,5.6,0.1,8.9,2l90.8,52.1
			c8.8,5.1,15.9,17.4,15.9,27.5l-0.4,42.9c0,4.2-1.3,7.4-3.4,9.3c-1.6,1.4-5.2,3.4-7.6,3.2c-2-0.1-2.7-2-5-3.4l-90.8-52.1
			c-8.8-5.1-15.9-17.4-15.9-27.5L135.6,144.8z"/>
		<path class="st8" d="M132.9,146.1c0-4.9,1.7-8.4,4.5-10.1c2.9-1.8,7-1.6,11.5,1l90.8,52.1c8.8,5.1,15.9,17.4,15.9,27.5l-0.4,42.9
			c0,10.1-7.2,14.2-16,9.1l-90.8-52.1c-8.8-5.1-15.9-17.4-15.9-27.5L132.9,146.1z"/>
		<g>
			<g>
				<path class="st29" d="M178.9,187.3c0.5,0.3,0.8,0.9,0.8,1.5l0,1.8c0,0.5-0.4,0.8-0.8,0.5l-26-14.9c-0.5-0.3-0.8-0.9-0.8-1.4
					l0-1.8c0-0.5,0.4-0.8,0.8-0.5L178.9,187.3z"/>
				<path class="st30" d="M178.9,175.4c0.5,0.3,0.8,0.9,0.8,1.5l0,1.8c0,0.5-0.4,0.8-0.8,0.5l-26-14.9c-0.5-0.3-0.8-0.9-0.8-1.5
					l0-1.8c0-0.5,0.4-0.8,0.8-0.5L178.9,175.4z"/>
				<path class="st31" d="M148.6,157.1c1.3,0.8,2.4,2.6,2.4,4.1c0,1.5-1.1,2.2-2.4,1.4c-1.3-0.8-2.4-2.6-2.4-4.2
					C146.2,157,147.3,156.4,148.6,157.1z"/>
				<path class="st32" d="M148.5,168.9c1.4,0.8,2.5,2.7,2.5,4.3c0,1.6-1.1,2.2-2.5,1.4c-1.3-0.8-2.4-2.7-2.4-4.3
					C146.1,168.8,147.2,168.1,148.5,168.9z"/>
				<g>
					<path class="st29" d="M177.9,212.1c0.5,0.3,0.8,0.9,0.8,1.5l0,1.8c0,0.5-0.4,0.8-0.8,0.5l-26-14.9c-0.5-0.3-0.8-0.9-0.8-1.4
						l0-1.8c0-0.5,0.4-0.8,0.8-0.5L177.9,212.1z"/>
					<path class="st30" d="M178,200.2c0.5,0.3,0.8,0.9,0.8,1.5l0,1.8c0,0.5-0.4,0.8-0.8,0.5L152,189c-0.5-0.3-0.8-0.9-0.8-1.5l0-1.8
						c0-0.5,0.4-0.8,0.8-0.5L178,200.2z"/>
					<path class="st31" d="M147.6,181.9c1.3,0.8,2.4,2.6,2.4,4.1c0,1.5-1.1,2.2-2.4,1.4c-1.3-0.8-2.4-2.6-2.4-4.2
						C145.2,181.7,146.3,181.1,147.6,181.9z"/>
					<path class="st32" d="M147.6,193.7c1.4,0.8,2.5,2.7,2.5,4.3c0,1.6-1.1,2.2-2.5,1.4c-1.3-0.8-2.4-2.7-2.4-4.3
						C145.1,193.6,146.2,192.9,147.6,193.7z"/>
				</g>
				<g>
					<path class="st29" d="M228.9,213.8c0.5,0.3,0.8,0.9,0.8,1.5l0,1.8c0,0.5-0.4,0.8-0.8,0.5l-26-14.9c-0.5-0.3-0.8-0.9-0.8-1.4
						l0-1.8c0-0.5,0.4-0.8,0.8-0.5L228.9,213.8z"/>
					<path class="st30" d="M228.9,201.9c0.5,0.3,0.8,0.9,0.8,1.5l0,1.8c0,0.5-0.4,0.8-0.8,0.5l-26-14.9c-0.5-0.3-0.8-0.9-0.8-1.5
						l0-1.8c0-0.5,0.4-0.8,0.8-0.5L228.9,201.9z"/>
					<path class="st31" d="M198.6,183.6c1.3,0.8,2.4,2.6,2.4,4.1c0,1.5-1.1,2.2-2.4,1.4c-1.3-0.8-2.4-2.6-2.4-4.2
						C196.2,183.5,197.3,182.8,198.6,183.6z"/>
					<path class="st32" d="M198.5,195.4c1.4,0.8,2.5,2.7,2.5,4.3c0,1.6-1.1,2.2-2.5,1.4c-1.3-0.8-2.4-2.7-2.4-4.3
						C196.1,195.3,197.2,194.6,198.5,195.4z"/>
					<g>
						<path class="st29" d="M227.9,238.6c0.5,0.3,0.8,0.9,0.8,1.5l0,1.8c0,0.5-0.4,0.8-0.8,0.5l-26-14.9c-0.5-0.3-0.8-0.9-0.8-1.4
							l0-1.8c0-0.5,0.4-0.8,0.8-0.5L227.9,238.6z"/>
						<path class="st30" d="M228,226.7c0.5,0.3,0.8,0.9,0.8,1.5l0,1.8c0,0.5-0.4,0.8-0.8,0.5l-26-14.9c-0.5-0.3-0.8-0.9-0.8-1.5
							l0-1.8c0-0.5,0.4-0.8,0.8-0.5L228,226.7z"/>
						<path class="st31" d="M197.6,208.4c1.3,0.8,2.4,2.6,2.4,4.1c0,1.5-1.1,2.2-2.4,1.4c-1.3-0.8-2.4-2.6-2.4-4.2
							C195.2,208.2,196.3,207.6,197.6,208.4z"/>
						<path class="st32" d="M197.6,220.2c1.4,0.8,2.5,2.7,2.5,4.3c0,1.6-1.1,2.2-2.5,1.4c-1.3-0.8-2.4-2.7-2.4-4.3
							C195.1,220,196.2,219.4,197.6,220.2z"/>
					</g>
				</g>
			</g>
		</g>
	</g>
	<g>
		
			<linearGradient id="SVGID_13_" gradientUnits="userSpaceOnUse" x1="390.6832" y1="-7.1012" x2="388.3296" y2="-2.2668" gradientTransform="matrix(-0.9868 0.1622 0.1622 0.9868 626.013 51.6476)">
			<stop  offset="0" style="stop-color:#3964AF"/>
			<stop  offset="1" style="stop-color:#00BCCE"/>
		</linearGradient>
		<path class="st33" d="M230.5,118.9c-0.3-1.5-0.3-3.5,0.6-5.4c1.4-3.1,4.2-5.7,6.9-7.6c5.8-3.9,13.7-7.1,16.8,1.1
			c-0.1-0.1-0.2-0.2-0.3-0.3c-1.1-1.3-2.8-1.8-4.5-1.9c-0.9-0.1-1.8,0-2.7,0.2c-0.1,0-0.2,0-0.3,0c-2.7,0.5-5.3,1.7-7.5,3.2
			c-2.8,1.9-5.4,4.6-6.9,7.7c-0.2,0.5-0.4,1-0.6,1.4c-0.4,1.4-0.5,2.7-0.2,3.8l0,0l0,0L230.5,118.9z"/>
		<path class="st11" d="M252.1,119c0.1-0.1,0.2-0.2,0.2-0.2c0.4-0.3,0.7-0.7,1.1-1.1c0.1-0.1,0.2-0.2,0.3-0.3
			c0.4-0.4,0.8-0.9,1.2-1.3c0.1-0.1,0.2-0.3,0.3-0.4c0.1-0.2,0.3-0.3,0.4-0.5c0.1-0.2,0.2-0.3,0.3-0.5c0.1-0.2,0.2-0.3,0.3-0.5
			c0.1-0.1,0.2-0.3,0.2-0.4c0.2-0.3,0.4-0.6,0.5-0.9c0.1-0.1,0.1-0.2,0.2-0.4c0.2-0.4,0.4-0.8,0.6-1.2c1.8-4,1.7-7.4,0-9.7l1.5,2.1
			c1.7,2.3,1.8,5.8,0,9.7c-0.2,0.4-0.4,0.8-0.6,1.2c-0.1,0.1-0.1,0.2-0.2,0.4c-0.2,0.3-0.4,0.6-0.5,0.9c0,0.1-0.1,0.1-0.1,0.2
			c0,0.1-0.1,0.1-0.1,0.2c-0.1,0.2-0.2,0.3-0.3,0.5c-0.1,0.2-0.2,0.3-0.3,0.5c-0.1,0.2-0.2,0.3-0.4,0.5c-0.1,0.1-0.2,0.2-0.2,0.3
			c0,0-0.1,0.1-0.1,0.1c-0.4,0.5-0.8,0.9-1.2,1.3c0,0-0.1,0.1-0.1,0.1c-0.1,0.1-0.1,0.1-0.2,0.2c-0.3,0.4-0.7,0.7-1.1,1.1
			c0,0-0.1,0.1-0.1,0.1c0,0-0.1,0.1-0.1,0.1l0,0L252.1,119z"/>
		
			<linearGradient id="SVGID_14_" gradientUnits="userSpaceOnUse" x1="390.6429" y1="-7.3314" x2="385.9032" y2="3.7825" gradientTransform="matrix(-0.9868 0.1622 0.1622 0.9868 626.013 51.6476)">
			<stop  offset="0" style="stop-color:#1C8EF4"/>
			<stop  offset="1" style="stop-color:#00CFDD"/>
		</linearGradient>
		<path class="st34" d="M226.7,114.2c3.6-7.9,13.5-14.9,22.1-15.7c8.6-0.8,12.6,5,9,12.9c-1.3,2.7-3.3,5.4-5.7,7.7l-3-1.7
			c1.8-1.7,3.3-3.6,4.2-5.5c2.6-5.6-0.3-9.6-6.4-9.1c-6.1,0.5-13.1,5.5-15.6,11.1c-0.9,2-1.1,3.7-0.8,5.2l-4.9,2.4
			C225.1,119.4,225.5,116.9,226.7,114.2z"/>
		<g>
			<path class="st13" d="M227,114.1c-1.1,2.5-1.2,4.6-0.9,6.5c0.6-0.2,2.7-1,4.4-1.6l-4.9,2.4c-0.5-2-0.1-4.5,1.1-7.2
				c3.2-6.9,11.3-13.2,19-15.1C238.1,101,230.1,107.2,227,114.1z"/>
			<path class="st14" d="M246.9,102.7c-0.7,0.1-1.4,0.2-2.1,0.4c0.8-0.2,1.6-0.3,2.4-0.4c6.3-1,11.8,5.7,2.9,14.6c0,0,2,1.7,2,1.8
				l-3-1.7c1.8-1.7,3.3-3.6,4.2-5.5C255.8,106.2,253,102.1,246.9,102.7z"/>
		</g>
		<path class="st15" d="M230.5,118.9l1.5,2.1c0.1,0.6,0.4,1.2,0.8,1.7l-1.5-2.1C230.9,120.1,230.6,119.6,230.5,118.9z"/>
		<path class="st15" d="M227.8,125.1c1.8,1.5,4.3,2,6.6,2c0.1,0,0.2,0,0.4,0c3.9-0.1,7.9-1.7,11.3-3.6c2.2-1.2,4.2-2.8,6.1-4.5
			l1.5,2.1c-1.8,1.7-3.9,3.2-6.1,4.5c0,0-0.1,0.1-0.1,0.1c-3.3,1.9-7.3,3.3-11.1,3.5c-2.4,0.1-5-0.4-6.9-2c-0.4-0.3-0.8-0.7-1.1-1.1
			c0,0-0.1-0.1-0.1-0.1l-1.5-2.1C227,124.3,227.4,124.8,227.8,125.1z"/>
		
			<linearGradient id="SVGID_15_" gradientUnits="userSpaceOnUse" x1="396.216" y1="9.4415" x2="389.2813" y2="-0.9769" gradientTransform="matrix(-0.9868 0.1622 0.1622 0.9868 626.013 51.6476)">
			<stop  offset="0" style="stop-color:#6D6AFE"/>
			<stop  offset="1" style="stop-color:#3FB0F7"/>
		</linearGradient>
		<path class="st35" d="M225.6,121.4l4.9-2.4c0.6,2.7,3.2,4.2,7.1,3.9c3.9-0.4,8.2-2.5,11.5-5.5l3,1.7c-4.6,4.3-10.8,7.5-16.4,8
			C230.1,127.5,226.4,125.2,225.6,121.4z"/>
		<path class="st17" d="M225.6,121.4c0,0,1.3,6.1,10.3,5.3c8.3-0.7,16.2-7.7,16.2-7.7c-4.6,4.3-10.8,7.5-16.4,8
			C230.1,127.5,226.4,125.2,225.6,121.4z"/>
	</g>
	<g>
		<path class="st18" d="M45.2,363.7l45.3-25.8c4.9-2.3,12-4.1,17-1.4c4.6,2.4,12.1,7.3,15.5,9.2c2.5,1.4,11.3,6.7,5.9,9.7
			c-16.1,8.8-32.1,18.6-48.5,27.6c-3.1,1.7-7.6,2.3-12.4,1.9c-4.7-0.4-9.6-1.8-13.4-4c-2.7-1.6-5.4-3.1-8-4.7
			c-3.6-2.1-5.4-4.5-5.6-6.8C40.8,367.1,42.2,365.1,45.2,363.7z"/>
		<g>
			<g>
				<linearGradient id="SVGID_16_" gradientUnits="userSpaceOnUse" x1="90.1289" y1="286.524" x2="101.0102" y2="305.1415">
					<stop  offset="0" style="stop-color:#FF8A78"/>
					<stop  offset="1" style="stop-color:#FFA799"/>
				</linearGradient>
				<path class="st36" d="M105.5,242.4c0.2,2-0.1,5,0.1,12.4c0.1,5.3-0.6,14.5-1.1,22.3c-0.2,3.3-0.7,6.2-1,8.7
					c-0.2,1.8-1,3.7-1.3,5.5c-2,13.5-4.6,25.8-6.1,42.1c-0.4,3.8-0.7,5.7-0.1,9.4c0.1,0.7,0.5,1.5,0.6,2.2c0.5,3.6,0.8,7.2,2.2,10.2
					c0.2,0.4,0.5,1.6,0.8,2.1c0,0-3.2,1.1-3.6,1.2c-0.4,0.1-5.6-1.4-5.6-1.4s-1.9-8.7-1.9-9.2c0.3-5.7-3.6-4.6-0.1-9
					c0.3-0.5,0.2-0.6,0.2-1.2c0-5.6-1-13.8-1.7-21.1c-2.1-20.9,1.4-19.4,2.2-29.4c-1.4-12-4.3-29.1-4-43.8L105.5,242.4z"/>
				<path class="st37" d="M98.1,353.7c0.6,1,1.2,2.5,1.7,3.6c0.7,1.4,1,2.4,1.3,3.5c0.2,0.6,0.1,1.1-0.1,1.4
					c-1.3,1.7-7.6-1.4-9.7-3.3c-1.4-1.2-1.4-2.6-1.7-4.4c-0.5-2.6-0.6-2.9-1.2-5.6l-0.7,7.3l-0.6,0.4c-0.1-3-0.4-6.9-0.9-9.4
					c-0.2-1-0.5-2.2-0.5-2.7c-0.3-3.3,1.4-4.9,2.9-5.8c-0.6,2,0.9,5.3,1.6,9.4c0.7,4.3,3.1,9,4.9,9.4c0.8,0.2,2.5-0.8,3.5-1.4
					C98.8,355.9,98.4,354.7,98.1,353.7z"/>
			</g>
			<g>
				<linearGradient id="SVGID_17_" gradientUnits="userSpaceOnUse" x1="89.5787" y1="303.1371" x2="72.877" y2="294.051">
					<stop  offset="0" style="stop-color:#FFB89E"/>
					<stop  offset="1" style="stop-color:#FFA799"/>
				</linearGradient>
				<path class="st38" d="M80,236.2c-2.1,6.9-6.4,13.3-7.2,18.7c-0.8,5.5-0.4,10.7,0.7,18.9c0.7,5.6,3.5,18.1,2.9,22.9
					c-0.9,7-3.4,11.1-4.3,19.3c-0.7,6.6,0.4,16.1,0.7,25.2c0.1,3.5-0.2,3.5-1,6.7c-0.3,1-0.4,2-0.6,3.3c-0.3,2.7-0.5,5.9-0.2,9.9
					c0.1,1.4,0.6,2.1,0.8,4l7.7,2.5c-0.2-1.6-0.4-4.2-0.5-6.9c-0.1-2.5-0.1-5.2-0.1-7.6c0-3.5-0.3-5.7,0.3-9.1
					c2.1-11.1,5.3-20.9,7.5-30c1.1-4.8,1.5-9,3.2-15.8c0.7-2.8,1.3-5.6,1.4-8.4c0.4-7.6,1.9-16.7,1.9-24.5
					c6.3-9.1,10.3-13.6,12-18.3c0.3-3.1-0.8-6.8-0.8-6.8L80,236.2z"/>
				<path class="st37" d="M72.6,345.1c-0.7,1.5-1.3,2.3-1.7,4.5c-0.4,2.2,0.2,5.7-0.2,8.4l-0.7,4.3c-0.4,2.5,0,4.3,2.6,6.7
					c2.3,2.2,4.7,3.3,6.2,2.8c1.1-0.4,2.1-2,1.2-6.9c-0.8-4-0.7-7.9-0.9-12.2c-0.3,4.2-0.4,5.6,0.1,9.8c0.1,1.2,0.2,3.1-1.2,3.1
					c-5.7,0.1-5.7-1.5-6-3.2C71.3,357.6,71.5,349.3,72.6,345.1z"/>
			</g>
			<linearGradient id="SVGID_18_" gradientUnits="userSpaceOnUse" x1="102.0874" y1="259.7045" x2="80.4554" y2="269.2097">
				<stop  offset="0" style="stop-color:#3E4795"/>
				<stop  offset="1" style="stop-color:#273088"/>
			</linearGradient>
			<path class="st39" d="M80,236.2c-2.1,6.9-6.4,13.3-7.2,18.7c-1.3,8.2,0.2,14.7,2.4,32.5c0.3,2.3,0,4.5-0.5,6.5
				c-1.3,6.2,4.8,7.9,12,5.6c8.8-2.8,17-9.4,17.5-12.5c1-8.7,3.5-25.2,3.3-32.6c-0.2-7.4-1.8-10-2-12l-0.1-1.9
				C105.2,239,83.1,236.6,80,236.2z"/>
		</g>
		<linearGradient id="SVGID_19_" gradientUnits="userSpaceOnUse" x1="77.5141" y1="173.8981" x2="71.6385" y2="196.2224">
			<stop  offset="0" style="stop-color:#5A2D68"/>
			<stop  offset="1" style="stop-color:#22043D"/>
		</linearGradient>
		<path class="st40" d="M64.3,199.8c16.2,8.7,23-8,24.7-20.5c0.7-5.4,0.5-10.6-1.8-13.8c-2.5-3.4-6.6-4.8-10.6-4.6
			c-8.8,0.3-13.5,8.7-11.4,17.4C67.3,186.6,71.4,195.8,64.3,199.8z"/>
		<linearGradient id="SVGID_20_" gradientUnits="userSpaceOnUse" x1="80.278" y1="170.273" x2="78.7302" y2="169.7393">
			<stop  offset="0" style="stop-color:#1C8EF4"/>
			<stop  offset="1" style="stop-color:#00CFDD"/>
		</linearGradient>
		<path class="st41" d="M85.7,165.8c-4.4-2.3-10.8,2.8-8.7,9.8C77.7,171.9,79.9,167.8,85.7,165.8z"/>
		<linearGradient id="SVGID_21_" gradientUnits="userSpaceOnUse" x1="91.1944" y1="174.4717" x2="85.7598" y2="187.3907">
			<stop  offset="0" style="stop-color:#5A2D68"/>
			<stop  offset="1" style="stop-color:#22043D"/>
		</linearGradient>
		<path class="st42" d="M85.2,165.2c15.6-5.2,26.7,18.9,8.9,26.3C77,198.6,67.9,170.9,85.2,165.2z"/>
		<g>
			<linearGradient id="SVGID_22_" gradientUnits="userSpaceOnUse" x1="141.0362" y1="210.85" x2="140.5033" y2="208.9137">
				<stop  offset="0" style="stop-color:#FF8A78"/>
				<stop  offset="1" style="stop-color:#FFA799"/>
			</linearGradient>
			<path class="st43" d="M146.2,208.3c0.9,1.3-0.8,2.3-1.6,2.3c-1.2,0.2-3-0.5-3.5,0.4c-0.5,0.9-6.3-1-6.3-1.1
				c2.4-1.7,4.6-2.1,5-2.1C143.6,208.1,142.5,208.9,146.2,208.3z"/>
			<path class="st44" d="M135.7,215.4c-5.4,1.5-12.7,6.7-17.8,7.9c-1.6,0.4-4.1,1.1-5.4-0.3c-6.5-7.1,2.6-4.8,3.3-7.4
				c4.7-3.5,12-1.8,17.9-5c0.4-0.3,0.8-0.5,1.2-0.7c2.3-1.2,3.6-1.1,7.7,1c1.2,0.6,1.8,0.5,2.8,0.5l4.1-0.5c1.3,0,2.1,0.3,2.2,0.7
				c0.2,0.5-0.2,3-1,4.1l0,0c-0.2,0.5-1.1,0.8-2.5,0.9l-6,1.8l-0.3-0.2C138.5,216,137,215.3,135.7,215.4z"/>
		</g>
		<linearGradient id="SVGID_23_" gradientUnits="userSpaceOnUse" x1="114.4768" y1="201.0279" x2="116.4046" y2="217.5973">
			<stop  offset="0" style="stop-color:#1C8EF4"/>
			<stop  offset="1" style="stop-color:#00CFDD"/>
		</linearGradient>
		<path class="st45" d="M110.2,223.6c-4.8-4.5-11.7-11-14.1-16.2c-1.6-3.4-1.9-12.8,3.2-14c1.7-1.1,4.3,5.9,6.1,8.8
			c3.2,5.1,5.5,8.2,9.3,12.9c4-2.6,9.4-2.8,14.6-4.1c0.8-0.2,1.6-0.2,2.4-0.1c0.6-0.1,1.2-0.4,1.8-0.6c0.6,0.2,2.5,3.5,2.2,5.5
			c-0.4,0.1-1.3,0.4-1.7,0.5c-0.6,0.2-1,0.8-1.6,1.1c-2,1.1-11.3,5.7-15.8,6.7c-1.7,0.4-4.6,1.3-5.9-0.2
			C110.5,223.8,110.3,223.7,110.2,223.6z"/>
		<linearGradient id="SVGID_24_" gradientUnits="userSpaceOnUse" x1="107.7536" y1="202.905" x2="108.4487" y2="219.9637">
			<stop  offset="0" style="stop-color:#1C8EF4"/>
			<stop  offset="1" style="stop-color:#00CFDD"/>
		</linearGradient>
		<path class="st46" d="M110.2,223.6c-1.6-1.5-3.4-3.2-5.2-5c3.8-3.3,3.5-9.2,1-12.8c-1.6-2.4-2.6-4.1-3.4-5.9
			c-0.2-1.4-0.5-2.6-0.7-3.4c-0.1-0.5-0.3-0.9-0.6-1.3c0.8,1,1.2,2.9,2.5,5.7c2.2,4.7,5.5,7.4,5.8,12.8c0.2,4,2,8.8,5.1,11
			c-1.5,0.3-3.2,0.4-4.2-0.6C110.5,223.8,110.3,223.7,110.2,223.6z"/>
		<g>
			<linearGradient id="SVGID_25_" gradientUnits="userSpaceOnUse" x1="89.5597" y1="208.7966" x2="91.3718" y2="240.4055">
				<stop  offset="0" style="stop-color:#1C8EF4"/>
				<stop  offset="1" style="stop-color:#00CFDD"/>
			</linearGradient>
			<path class="st47" d="M76.8,229c3,6.9-2.1,10.7-0.3,15.4l-0.6,3.2c5.4,3.9,24.8,4.2,29.7-3.5l0.1-3.9c0.8-1.8,0.3-6.5,0-7.7
				c-0.8-3.9-0.4-6-0.8-10.5c-0.1-1.1-0.3-1.9-0.4-3c4.3-3.2,4-9.5,1.5-13.2c-1.6-2.4-2.6-4.1-3.4-5.9c-0.2-1.4-0.5-2.6-0.7-3.4
				c-0.2-0.7-0.5-1.3-0.9-1.9c-1.2-1.8-3.2-2-7.3-1c-8.1,1.9-16.4,6-20.1,10c-2.7,2.9-2.6,6.1-1,13C73.5,220.9,75.3,225.5,76.8,229z
				"/>
			<linearGradient id="SVGID_26_" gradientUnits="userSpaceOnUse" x1="88.4393" y1="218.9757" x2="90.1" y2="242.6487">
				<stop  offset="0" style="stop-color:#1C8EF4"/>
				<stop  offset="1" style="stop-color:#00CFDD"/>
			</linearGradient>
			<path class="st48" d="M76.7,228.9c3,6.9-2,10.8-0.1,15.5l-0.6,3.2c5.4,4.2,24.8,4,29.7-3.7l-0.1-3.4c0-0.1-9.5,8.4-20.4,3.7
				c-2.4-1-4.5-6.2-1.4-16c0.3-0.9,3.7-1,8.6-4.6c-3.6,1.5-10.4,3.6-10.8-5.6c-0.2-4.1-0.8-7.2-2.9-10.1c-1-1.4-7,5.9-6.1,9.4
				C73.9,221.8,75.6,226.3,76.7,228.9z"/>
		</g>
		<path class="st49" d="M98,196.4c0.7,2.2,1,13-0.2,17.7c-4.3-4.9-17-11.3-15.4-14.7C84.5,195.1,96.9,192.6,98,196.4z"/>
		<path class="st44" d="M97.4,196.9c0.6,2,0.8,11.7,0,15.9c-3.3-4-15.5-10-14-13.4C85,195.5,96.4,193.5,97.4,196.9z"/>
		<g>
			<path class="st44" d="M86.3,187.8c0.6,3.6,0.3,6.9-0.8,10.4c2.9,2.7,8.1,1.5,9.3-0.9c-0.3-1.6-0.5-3-0.7-4.7L86.3,187.8z"/>
			<linearGradient id="SVGID_27_" gradientUnits="userSpaceOnUse" x1="90.2038" y1="192.7257" x2="89.6138" y2="195.6765">
				<stop  offset="0" style="stop-color:#FF8A78"/>
				<stop  offset="1" style="stop-color:#FFA799"/>
			</linearGradient>
			<path class="st50" d="M86.3,187.8c0.3,1.7,0.4,3.4,0.3,5c0.9,3.5,7.3,5.8,8,3c-0.2-1.1-0.4-2.1-0.5-3.2L86.3,187.8z"/>
			<path class="st44" d="M98.3,172.8c1.5,2.3,2.2,4.6,1.9,7.9c-0.1,0.8,0,1.4,0.3,1.9c1.4,3.1,1.2,4,0.6,6.5
				c-0.7,2.4-0.6,3.6-1.4,4.5c-0.8,0.8-2.1,1-3.1,1.1c-2.2,0.1-5.9-1.3-8.1-2.5c-1.6-0.9-1.5-1.5-2.2-3c-2.3-2-0.8-3.4,0-3.6
				c2.2-0.4,2.5,2.1,3.8,2.6C89.7,183.7,98.1,176.3,98.3,172.8z"/>
			<linearGradient id="SVGID_28_" gradientUnits="userSpaceOnUse" x1="100.7043" y1="181.2212" x2="96.1571" y2="188.5856">
				<stop  offset="0" style="stop-color:#FFB89E"/>
				<stop  offset="1" style="stop-color:#FFA799"/>
			</linearGradient>
			<path class="st51" d="M99.2,174.5c0.8,1.8,1.2,3.7,0.9,6.1c-0.1,0.8,0,1.4,0.3,1.9c1.4,3.1,1.2,4,0.6,6.5
				c-0.3,1.1-0.4,1.9-0.6,2.6c-0.5,0.8-1.6,1.2-2.5,0.7c-0.9-0.4-1.8-1.5-2-3.3c-0.2-1.3-2.8-2.1-3.3-3.4c-0.4-1.1,0.8-2.3,1.5-2.9
				C96.6,180.6,98.2,177.7,99.2,174.5z"/>
			<path class="st52" d="M98.3,172.8c-1.2,5.4-8.3,9.5-8.4,15.4C91.9,182,98.7,177.9,98.3,172.8z"/>
		</g>
		<g>
			<linearGradient id="SVGID_29_" gradientUnits="userSpaceOnUse" x1="78.0103" y1="248.7779" x2="77.0704" y2="250.0791">
				<stop  offset="0" style="stop-color:#FFB89E"/>
				<stop  offset="1" style="stop-color:#FFA799"/>
			</linearGradient>
			<path class="st53" d="M73.2,242.7c1,0.6,2.7,1.1,3.4,1.6c0.4,0.2,3,1.8,4.5,2.8c1.6,1.1,2,2.6,3,4.3c0.7,1.4,1,2.4,1.1,3.1
				c0.1,0.7-1.7,2.1-2.5,1.9c-1.8-0.4-3.5-2.5-4-2.8c-3.9-2-5.8-2.2-7.2-3.9c-0.6-0.7-1-2.7-2.2-4.5l2.4-2.2L73.2,242.7z"/>
			<linearGradient id="SVGID_30_" gradientUnits="userSpaceOnUse" x1="77.2574" y1="215.987" x2="67.3714" y2="230.0609">
				<stop  offset="0" style="stop-color:#1C8EF4"/>
				<stop  offset="1" style="stop-color:#00CFDD"/>
			</linearGradient>
			<path class="st54" d="M73.2,203.5c-6.4,2.7-11.8,15.1-17.6,22.5c-1.1,1.5-1.2,2.9-0.6,4c0.2,0.6,0.6,1.3,1.1,2
				c2.7,4,5,7.5,10.8,12.5c0.4,0.4,0.9,0.5,1.5,0.7c0.4,0.3,0.9,0.9,1.3,1.2c-0.5-0.6,2.4-3.8,3.8-3.6c-0.3-0.4-0.7-0.9-1-1.4
				c0-0.6-0.1-0.8-0.4-1.3c-2.4-3.5-4.8-8.3-7.9-11.6c5.1-4.2,8.2-7,12.5-12.2C82.7,209.2,78.1,201.5,73.2,203.5z"/>
		</g>
	</g>
</g>
<g>
	<path class="st55" d="M554.6,234.7c-0.2,0-0.4,0.1-0.6,0.1c-9.1,1.7-19,9.6-22.4,18.2l2.5,3.7c0.8-2,1.9-3.8,3.2-5.5
		c0.2-0.3,0.5-0.6,0.7-0.9c4.3-5.1,10.7-9.4,17.2-11.1c0.1,0,0.3-0.1,0.4-0.1c4.6-1.1,10.8-1.2,13.7,3l-2.5-3.7
		C564.2,234.8,558.7,234,554.6,234.7z"/>
	<path class="st55" d="M574.3,233.9c0.1,0.1,0.2,0.3,0.2,0.4c0.1,0.1,0.1,0.2,0.2,0.4c0.1,0.1,0.1,0.3,0.2,0.4
		c0.1,0.1,0.1,0.2,0.2,0.4c0.1,0.1,0.1,0.3,0.2,0.4c0,0.1,0.1,0.3,0.1,0.4c0,0.1,0.1,0.3,0.1,0.4c0,0.1,0.1,0.3,0.1,0.4
		c0,0.2,0.1,0.3,0.1,0.5c0,0.1,0,0.3,0.1,0.4c0,0.2,0,0.3,0.1,0.5c0,0.1,0,0.3,0,0.4c0,0.2,0,0.4,0,0.6c0,0.1,0,0.3,0,0.4
		c0,0.2,0,0.5,0,0.7c0,0.1,0,0.2,0,0.3c0,0.4-0.1,0.8-0.1,1.2c0,0.1,0,0.2,0,0.3c0,0.3-0.1,0.6-0.2,0.9c0,0.1-0.1,0.3-0.1,0.4
		c0,0.2-0.1,0.4-0.1,0.6c0,0.2-0.1,0.3-0.1,0.5c-0.1,0.2-0.1,0.4-0.2,0.6c-0.1,0.2-0.1,0.4-0.2,0.5c-0.1,0.2-0.1,0.4-0.2,0.6
		c-0.1,0.2-0.1,0.4-0.2,0.5c-0.1,0.2-0.2,0.4-0.3,0.6c-0.1,0.2-0.2,0.5-0.3,0.7c-0.2,0.4-0.4,0.8-0.6,1.2c-0.2,0.4-0.4,0.8-0.7,1.2
		l2.5,3.7c0.5-0.8,0.9-1.6,1.3-2.4c0.1-0.1,0.1-0.3,0.2-0.4c0.1-0.1,0.1-0.2,0.2-0.4c0.1-0.2,0.2-0.4,0.3-0.6
		c0.1-0.2,0.1-0.4,0.2-0.5c0.1-0.2,0.1-0.4,0.2-0.6c0.1-0.2,0.1-0.4,0.2-0.5c0.1-0.2,0.1-0.4,0.2-0.6c0.1-0.2,0.1-0.3,0.1-0.5
		c0-0.2,0.1-0.4,0.1-0.6c0-0.1,0-0.2,0.1-0.2c0-0.1,0-0.1,0-0.2c0.1-0.3,0.1-0.6,0.2-0.9c0-0.1,0-0.2,0-0.3c0.1-0.4,0.1-0.8,0.1-1.2
		c0,0,0,0,0-0.1c0-0.1,0-0.2,0-0.3c0-0.2,0-0.5,0-0.7c0-0.1,0-0.3,0-0.4c0-0.2,0-0.4,0-0.6c0-0.1,0-0.1,0-0.2c0-0.1,0-0.2,0-0.2
		c0-0.2,0-0.3-0.1-0.5c0-0.1,0-0.3-0.1-0.4c0-0.2-0.1-0.3-0.1-0.5c0-0.1,0-0.1,0-0.2c0-0.1,0-0.1-0.1-0.2c0-0.1-0.1-0.3-0.1-0.4
		c0-0.1-0.1-0.3-0.1-0.4c-0.1-0.1-0.1-0.3-0.2-0.4c0-0.1-0.1-0.2-0.1-0.2c0,0,0-0.1-0.1-0.1c-0.1-0.1-0.1-0.3-0.2-0.4
		c-0.1-0.1-0.1-0.2-0.2-0.4c-0.1-0.1-0.2-0.3-0.2-0.4c0-0.1-0.1-0.2-0.1-0.2c0-0.1-0.1-0.1-0.1-0.2l-2.5-3.7
		C574.1,233.6,574.2,233.8,574.3,233.9z"/>
	<linearGradient id="SVGID_31_" gradientUnits="userSpaceOnUse" x1="540.8919" y1="237.5094" x2="558.9222" y2="252.5078">
		<stop  offset="0" style="stop-color:#FA5DB1"/>
		<stop  offset="1" style="stop-color:#FEBFBF"/>
	</linearGradient>
	<path class="st56" d="M559.7,228.4c-13.6,1.2-29.2,12-34.9,24.3c-0.4,0.9-0.8,1.8-1.1,2.6l7.9-2.3c0.1-0.3,0.3-0.6,0.4-1
		c4-8.7,15.1-16.4,24.7-17.2c9.6-0.8,14.1,5.6,10,14.2c-0.2,0.3-0.3,0.7-0.5,1l6.4,0.8c0.5-0.8,0.9-1.6,1.3-2.4
		C579.6,236.3,573.2,227.2,559.7,228.4z"/>
	<g>
		<path class="st57" d="M566.3,238c-3.3-4.8-12.4-4.2-18.7-1.2c-7.8,3.7-13.8,9.8-16.6,15.6c0,0-7.1,2.4-7.3,2.9l7.9-2.3
			c0.1-0.3,0.3-0.6,0.4-1c4-8.7,15.1-16.4,24.7-17.2C561.1,234.5,564.4,235.7,566.3,238z"/>
		<path class="st58" d="M572.2,250.2c0,0-5.9-0.4-6-0.1l6.4,0.8c0.5-0.8,0.9-1.6,1.3-2.4c3-6.4,2.7-11.9-0.2-15.6
			C578.2,240.1,572.7,249.4,572.2,250.2z"/>
	</g>
	<g>
		<path class="st59" d="M534.1,256.7c0,0-2.3-3.4-2.5-3.7c-2.8,6.5-1.5,9.1,2.8,13.3c-0.2-0.3-0.4-0.6-0.5-0.9
			c0-0.1-0.1-0.1-0.1-0.2C532.5,262.6,533,259.4,534.1,256.7z"/>
		<path class="st60" d="M575.1,254.6l-2.5-3.7c-5.9,10.2-37.1,28.7-48,16.8l2.5,3.7c2.6,3.7,7.5,5.7,14.4,5.1
			c0.8-0.1,1.6-0.2,2.4-0.3c0.3,0,0.6-0.1,0.8-0.2c0.6-0.1,1.2-0.2,1.8-0.4c2.2-0.5,4.4-1.3,6.5-2.2c0.1,0,0.2-0.1,0.3-0.1
			c7.8-3.4,15.2-9.1,20.2-16.1c0.2-0.2,0.3-0.4,0.5-0.6C574.3,256,574.7,255.3,575.1,254.6z"/>
		<linearGradient id="SVGID_32_" gradientUnits="userSpaceOnUse" x1="542.5374" y1="273.1983" x2="548.9988" y2="250.0264">
			<stop  offset="0" style="stop-color:#965CF2"/>
			<stop  offset="1" style="stop-color:#FF8ADC"/>
		</linearGradient>
		<path class="st61" d="M566.2,250.1c-4.4,8.3-15,15.4-24.2,16.2c-9.2,0.8-13.7-5.1-10.4-13.3l-7.9,2.3
			c-3.7,10.9,2.7,18.6,15.2,17.5c12.7-1.1,27.1-10.6,33.6-21.9L566.2,250.1z"/>
		<path class="st62" d="M539.1,272.3c-20.4,1.5-15.4-17-15.4-17c-3.7,10.9,2.7,18.6,15.2,17.5c12.7-1.1,27.1-10.6,33.6-21.9
			C572.6,251,559.6,270.7,539.1,272.3z"/>
	</g>
</g>
</svg>
